solid 
   facet normal 0.000000e+00 0.000000e+00 -1.000000e+00
      outer loop
         vertex 4.330127e+00 3.500000e+00 0.000000e+00
         vertex -1.600000e+01 4.500000e+00 0.000000e+00
         vertex 1.600000e+01 4.500000e+00 0.000000e+00
      endloop
   endfacet
   facet normal 0.000000e+00 0.000000e+00 -1.000000e+00
      outer loop
         vertex -1.600000e+01 3.000000e+00 0.000000e+00
         vertex -1.762500e+01 4.064582e+00 0.000000e+00
         vertex -1.600000e+01 4.500000e+00 0.000000e+00
      endloop
   endfacet
   facet normal 0.000000e+00 0.000000e+00 -1.000000e+00
      outer loop
         vertex -1.702862e+01 2.665780e+00 0.000000e+00
         vertex -1.881458e+01 2.875000e+00 0.000000e+00
         vertex -1.762500e+01 4.064582e+00 0.000000e+00
      endloop
   endfacet
   facet normal 0.000000e+00 0.000000e+00 -1.000000e+00
      outer loop
         vertex -1.766435e+01 1.790780e+00 0.000000e+00
         vertex -1.925000e+01 1.250000e+00 0.000000e+00
         vertex -1.881458e+01 2.875000e+00 0.000000e+00
      endloop
   endfacet
   facet normal 0.000000e+00 0.000000e+00 -1.000000e+00
      outer loop
         vertex -1.766435e+01 7.092202e-01 0.000000e+00
         vertex -1.881458e+01 -3.750000e-01 0.000000e+00
         vertex -1.925000e+01 1.250000e+00 0.000000e+00
      endloop
   endfacet
   facet normal 0.000000e+00 0.000000e+00 -1.000000e+00
      outer loop
         vertex -1.702862e+01 -1.657797e-01 0.000000e+00
         vertex -1.762500e+01 -1.564583e+00 0.000000e+00
         vertex -1.881458e+01 -3.750000e-01 0.000000e+00
      endloop
   endfacet
   facet normal 0.000000e+00 0.000000e+00 -1.000000e+00
      outer loop
         vertex -1.600000e+01 -5.000000e-01 0.000000e+00
         vertex -1.600000e+01 -2.000000e+00 0.000000e+00
         vertex -1.762500e+01 -1.564583e+00 0.000000e+00
      endloop
   endfacet
   facet normal 0.000000e+00 0.000000e+00 -1.000000e+00
      outer loop
         vertex -1.647416e-13 -1.000000e+00 0.000000e+00
         vertex 1.600000e+01 -2.000000e+00 0.000000e+00
         vertex -1.600000e+01 -2.000000e+00 0.000000e+00
      endloop
   endfacet
   facet normal -0.000000e+00 0.000000e+00 -1.000000e+00
      outer loop
         vertex 1.600000e+01 -5.000000e-01 0.000000e+00
         vertex 1.762500e+01 -1.564583e+00 0.000000e+00
         vertex 1.600000e+01 -2.000000e+00 0.000000e+00
      endloop
   endfacet
   facet normal -0.000000e+00 0.000000e+00 -1.000000e+00
      outer loop
         vertex 1.702862e+01 -1.657797e-01 0.000000e+00
         vertex 1.881458e+01 -3.750000e-01 0.000000e+00
         vertex 1.762500e+01 -1.564583e+00 0.000000e+00
      endloop
   endfacet
   facet normal 0.000000e+00 0.000000e+00 -1.000000e+00
      outer loop
         vertex 1.766435e+01 7.092202e-01 0.000000e+00
         vertex 1.925000e+01 1.250000e+00 0.000000e+00
         vertex 1.881458e+01 -3.750000e-01 0.000000e+00
      endloop
   endfacet
   facet normal 0.000000e+00 -0.000000e+00 -1.000000e+00
      outer loop
         vertex 1.766435e+01 1.790780e+00 0.000000e+00
         vertex 1.881458e+01 2.875000e+00 0.000000e+00
         vertex 1.925000e+01 1.250000e+00 0.000000e+00
      endloop
   endfacet
   facet normal 0.000000e+00 -0.000000e+00 -1.000000e+00
      outer loop
         vertex 1.702862e+01 2.665780e+00 0.000000e+00
         vertex 1.762500e+01 4.064582e+00 0.000000e+00
         vertex 1.881458e+01 2.875000e+00 0.000000e+00
      endloop
   endfacet
   facet normal 0.000000e+00 0.000000e+00 -1.000000e+00
      outer loop
         vertex 1.600000e+01 3.000000e+00 0.000000e+00
         vertex 1.600000e+01 4.500000e+00 0.000000e+00
         vertex 1.762500e+01 4.064582e+00 0.000000e+00
      endloop
   endfacet
   facet normal 0.000000e+00 0.000000e+00 -1.000000e+00
      outer loop
         vertex -1.600000e+01 -2.000000e+00 0.000000e+00
         vertex -1.600000e+01 -5.000000e-01 0.000000e+00
         vertex -4.337337e+00 -4.999913e-01 0.000000e+00
      endloop
   endfacet
   facet normal 0.000000e+00 -0.000000e+00 -1.000000e+00
      outer loop
         vertex -1.762500e+01 -1.564583e+00 0.000000e+00
         vertex -1.702862e+01 -1.657797e-01 0.000000e+00
         vertex -1.600000e+01 -5.000000e-01 0.000000e+00
      endloop
   endfacet
   facet normal 0.000000e+00 -0.000000e+00 -1.000000e+00
      outer loop
         vertex -1.881458e+01 -3.750000e-01 0.000000e+00
         vertex -1.766435e+01 7.092202e-01 0.000000e+00
         vertex -1.702862e+01 -1.657797e-01 0.000000e+00
      endloop
   endfacet
   facet normal 0.000000e+00 -0.000000e+00 -1.000000e+00
      outer loop
         vertex -1.925000e+01 1.250000e+00 0.000000e+00
         vertex -1.766435e+01 1.790780e+00 0.000000e+00
         vertex -1.766435e+01 7.092202e-01 0.000000e+00
      endloop
   endfacet
   facet normal -0.000000e+00 0.000000e+00 -1.000000e+00
      outer loop
         vertex -1.881458e+01 2.875000e+00 0.000000e+00
         vertex -1.702862e+01 2.665780e+00 0.000000e+00
         vertex -1.766435e+01 1.790780e+00 0.000000e+00
      endloop
   endfacet
   facet normal -0.000000e+00 0.000000e+00 -1.000000e+00
      outer loop
         vertex -1.762500e+01 4.064582e+00 0.000000e+00
         vertex -1.600000e+01 3.000000e+00 0.000000e+00
         vertex -1.702862e+01 2.665780e+00 0.000000e+00
      endloop
   endfacet
   facet normal 0.000000e+00 0.000000e+00 -1.000000e+00
      outer loop
         vertex -1.600000e+01 4.500000e+00 0.000000e+00
         vertex -8.038226e+00 3.000000e+00 0.000000e+00
         vertex -1.600000e+01 3.000000e+00 0.000000e+00
      endloop
   endfacet
   facet normal 0.000000e+00 0.000000e+00 -1.000000e+00
      outer loop
         vertex -5.037234e+00 3.207107e+00 0.000000e+00
         vertex -6.920192e+00 2.658312e+00 0.000000e+00
         vertex -8.038226e+00 3.000000e+00 0.000000e+00
      endloop
   endfacet
   facet normal 0.000000e+00 0.000000e+00 -1.000000e+00
      outer loop
         vertex -5.330127e+00 2.500000e+00 0.000000e+00
         vertex -6.184176e+00 1.750000e+00 0.000000e+00
         vertex -6.920192e+00 2.658312e+00 0.000000e+00
      endloop
   endfacet
   facet normal 0.000000e+00 0.000000e+00 -1.000000e+00
      outer loop
         vertex -5.037234e+00 1.792893e+00 0.000000e+00
         vertex -5.505183e+00 8.815920e-01 0.000000e+00
         vertex -6.184176e+00 1.750000e+00 0.000000e+00
      endloop
   endfacet
   facet normal 0.000000e+00 0.000000e+00 -1.000000e+00
      outer loop
         vertex -4.330127e+00 1.500000e+00 0.000000e+00
         vertex -4.469217e+00 5.048423e-01 0.000000e+00
         vertex -5.505183e+00 8.815920e-01 0.000000e+00
      endloop
   endfacet
   facet normal -0.000000e+00 0.000000e+00 -1.000000e+00
      outer loop
         vertex -4.330127e+00 1.500000e+00 0.000000e+00
         vertex -3.390996e+00 7.342044e-01 0.000000e+00
         vertex -4.469217e+00 5.048423e-01 0.000000e+00
      endloop
   endfacet
   facet normal -0.000000e+00 0.000000e+00 -1.000000e+00
      outer loop
         vertex -3.623020e+00 1.792893e+00 0.000000e+00
         vertex -2.598076e+00 1.500000e+00 0.000000e+00
         vertex -3.390996e+00 7.342044e-01 0.000000e+00
      endloop
   endfacet
   facet normal 0.000000e+00 0.000000e+00 -1.000000e+00
      outer loop
         vertex -3.330127e+00 2.500000e+00 0.000000e+00
         vertex -1.500000e+00 2.598076e+00 0.000000e+00
         vertex -2.598076e+00 1.500000e+00 0.000000e+00
      endloop
   endfacet
   facet normal -0.000000e+00 0.000000e+00 -1.000000e+00
      outer loop
         vertex -3.623020e+00 3.207107e+00 0.000000e+00
         vertex -1.704576e-13 3.000000e+00 0.000000e+00
         vertex -1.500000e+00 2.598076e+00 0.000000e+00
      endloop
   endfacet
   facet normal 0.000000e+00 0.000000e+00 -1.000000e+00
      outer loop
         vertex 3.623020e+00 3.207107e+00 0.000000e+00
         vertex 1.500000e+00 2.598076e+00 0.000000e+00
         vertex -1.704576e-13 3.000000e+00 0.000000e+00
      endloop
   endfacet
   facet normal 0.000000e+00 0.000000e+00 -1.000000e+00
      outer loop
         vertex 3.330127e+00 2.500000e+00 0.000000e+00
         vertex 2.598076e+00 1.500000e+00 0.000000e+00
         vertex 1.500000e+00 2.598076e+00 0.000000e+00
      endloop
   endfacet
   facet normal 0.000000e+00 0.000000e+00 -1.000000e+00
      outer loop
         vertex 3.623020e+00 1.792893e+00 0.000000e+00
         vertex 3.390996e+00 7.342044e-01 0.000000e+00
         vertex 2.598076e+00 1.500000e+00 0.000000e+00
      endloop
   endfacet
   facet normal 0.000000e+00 0.000000e+00 -1.000000e+00
      outer loop
         vertex 4.330127e+00 1.500000e+00 0.000000e+00
         vertex 4.469217e+00 5.048423e-01 0.000000e+00
         vertex 3.390996e+00 7.342044e-01 0.000000e+00
      endloop
   endfacet
   facet normal -0.000000e+00 0.000000e+00 -1.000000e+00
      outer loop
         vertex 4.330127e+00 1.500000e+00 0.000000e+00
         vertex 5.505183e+00 8.815920e-01 0.000000e+00
         vertex 4.469217e+00 5.048423e-01 0.000000e+00
      endloop
   endfacet
   facet normal -0.000000e+00 0.000000e+00 -1.000000e+00
      outer loop
         vertex 5.037234e+00 1.792893e+00 0.000000e+00
         vertex 6.184176e+00 1.750000e+00 0.000000e+00
         vertex 5.505183e+00 8.815920e-01 0.000000e+00
      endloop
   endfacet
   facet normal 0.000000e+00 0.000000e+00 -1.000000e+00
      outer loop
         vertex 5.330127e+00 2.500000e+00 0.000000e+00
         vertex 6.920192e+00 2.658312e+00 0.000000e+00
         vertex 6.184176e+00 1.750000e+00 0.000000e+00
      endloop
   endfacet
   facet normal -0.000000e+00 0.000000e+00 -1.000000e+00
      outer loop
         vertex 5.037234e+00 3.207107e+00 0.000000e+00
         vertex 8.038226e+00 3.000000e+00 0.000000e+00
         vertex 6.920192e+00 2.658312e+00 0.000000e+00
      endloop
   endfacet
   facet normal 0.000000e+00 0.000000e+00 -1.000000e+00
      outer loop
         vertex 1.600000e+01 4.500000e+00 0.000000e+00
         vertex 1.600000e+01 3.000000e+00 0.000000e+00
         vertex 8.038226e+00 3.000000e+00 0.000000e+00
      endloop
   endfacet
   facet normal 0.000000e+00 0.000000e+00 -1.000000e+00
      outer loop
         vertex 1.762500e+01 4.064582e+00 0.000000e+00
         vertex 1.702862e+01 2.665780e+00 0.000000e+00
         vertex 1.600000e+01 3.000000e+00 0.000000e+00
      endloop
   endfacet
   facet normal 0.000000e+00 0.000000e+00 -1.000000e+00
      outer loop
         vertex 1.881458e+01 2.875000e+00 0.000000e+00
         vertex 1.766435e+01 1.790780e+00 0.000000e+00
         vertex 1.702862e+01 2.665780e+00 0.000000e+00
      endloop
   endfacet
   facet normal 0.000000e+00 0.000000e+00 -1.000000e+00
      outer loop
         vertex 1.925000e+01 1.250000e+00 0.000000e+00
         vertex 1.766435e+01 7.092202e-01 0.000000e+00
         vertex 1.766435e+01 1.790780e+00 0.000000e+00
      endloop
   endfacet
   facet normal 0.000000e+00 0.000000e+00 -1.000000e+00
      outer loop
         vertex 1.881458e+01 -3.750000e-01 0.000000e+00
         vertex 1.702862e+01 -1.657797e-01 0.000000e+00
         vertex 1.766435e+01 7.092202e-01 0.000000e+00
      endloop
   endfacet
   facet normal 0.000000e+00 0.000000e+00 -1.000000e+00
      outer loop
         vertex 1.762500e+01 -1.564583e+00 0.000000e+00
         vertex 1.600000e+01 -5.000000e-01 0.000000e+00
         vertex 1.702862e+01 -1.657797e-01 0.000000e+00
      endloop
   endfacet
   facet normal 0.000000e+00 0.000000e+00 -1.000000e+00
      outer loop
         vertex 1.600000e+01 -2.000000e+00 0.000000e+00
         vertex 4.337337e+00 -4.999913e-01 0.000000e+00
         vertex 1.600000e+01 -5.000000e-01 0.000000e+00
      endloop
   endfacet
   facet normal 0.000000e+00 -0.000000e+00 -1.000000e+00
      outer loop
         vertex 7.071068e-01 -7.071068e-01 0.000000e+00
         vertex 2.833250e+00 -9.987674e-02 0.000000e+00
         vertex 4.337337e+00 -4.999913e-01 0.000000e+00
      endloop
   endfacet
   facet normal 0.000000e+00 -0.000000e+00 -1.000000e+00
      outer loop
         vertex 1.000000e+00 1.286498e-15 0.000000e+00
         vertex 1.732051e+00 1.000000e+00 0.000000e+00
         vertex 2.833250e+00 -9.987674e-02 0.000000e+00
      endloop
   endfacet
   facet normal 0.000000e+00 0.000000e+00 -1.000000e+00
      outer loop
         vertex 7.071068e-01 7.071068e-01 0.000000e+00
         vertex 6.840403e-01 1.879385e+00 0.000000e+00
         vertex 1.732051e+00 1.000000e+00 0.000000e+00
      endloop
   endfacet
   facet normal 0.000000e+00 0.000000e+00 -1.000000e+00
      outer loop
         vertex -1.675596e-13 1.000000e+00 0.000000e+00
         vertex -6.840403e-01 1.879385e+00 0.000000e+00
         vertex 6.840403e-01 1.879385e+00 0.000000e+00
      endloop
   endfacet
   facet normal 0.000000e+00 0.000000e+00 -1.000000e+00
      outer loop
         vertex -7.071068e-01 7.071068e-01 0.000000e+00
         vertex -1.732051e+00 1.000000e+00 0.000000e+00
         vertex -6.840403e-01 1.879385e+00 0.000000e+00
      endloop
   endfacet
   facet normal 0.000000e+00 0.000000e+00 -1.000000e+00
      outer loop
         vertex -1.000000e+00 -1.408963e-15 0.000000e+00
         vertex -2.833250e+00 -9.987674e-02 0.000000e+00
         vertex -1.732051e+00 1.000000e+00 0.000000e+00
      endloop
   endfacet
   facet normal 0.000000e+00 0.000000e+00 -1.000000e+00
      outer loop
         vertex -7.071068e-01 -7.071068e-01 0.000000e+00
         vertex -4.337337e+00 -4.999913e-01 0.000000e+00
         vertex -2.833250e+00 -9.987674e-02 0.000000e+00
      endloop
   endfacet
   facet normal 0.000000e+00 0.000000e+00 -1.000000e+00
      outer loop
         vertex 8.038226e+00 3.000000e+00 0.000000e+00
         vertex 5.037234e+00 3.207107e+00 0.000000e+00
         vertex 4.330127e+00 3.500000e+00 0.000000e+00
      endloop
   endfacet
   facet normal 0.000000e+00 0.000000e+00 -1.000000e+00
      outer loop
         vertex 6.920192e+00 2.658312e+00 0.000000e+00
         vertex 5.330127e+00 2.500000e+00 0.000000e+00
         vertex 5.037234e+00 3.207107e+00 0.000000e+00
      endloop
   endfacet
   facet normal 0.000000e+00 0.000000e+00 -1.000000e+00
      outer loop
         vertex 6.184176e+00 1.750000e+00 0.000000e+00
         vertex 5.037234e+00 1.792893e+00 0.000000e+00
         vertex 5.330127e+00 2.500000e+00 0.000000e+00
      endloop
   endfacet
   facet normal 0.000000e+00 0.000000e+00 -1.000000e+00
      outer loop
         vertex 5.505183e+00 8.815920e-01 0.000000e+00
         vertex 4.330127e+00 1.500000e+00 0.000000e+00
         vertex 5.037234e+00 1.792893e+00 0.000000e+00
      endloop
   endfacet
   facet normal 0.000000e+00 -0.000000e+00 -1.000000e+00
      outer loop
         vertex 3.390996e+00 7.342044e-01 0.000000e+00
         vertex 3.623020e+00 1.792893e+00 0.000000e+00
         vertex 4.330127e+00 1.500000e+00 0.000000e+00
      endloop
   endfacet
   facet normal 0.000000e+00 -0.000000e+00 -1.000000e+00
      outer loop
         vertex 2.598076e+00 1.500000e+00 0.000000e+00
         vertex 3.330127e+00 2.500000e+00 0.000000e+00
         vertex 3.623020e+00 1.792893e+00 0.000000e+00
      endloop
   endfacet
   facet normal 0.000000e+00 0.000000e+00 -1.000000e+00
      outer loop
         vertex 1.500000e+00 2.598076e+00 0.000000e+00
         vertex 3.623020e+00 3.207107e+00 0.000000e+00
         vertex 3.330127e+00 2.500000e+00 0.000000e+00
      endloop
   endfacet
   facet normal 0.000000e+00 0.000000e+00 -1.000000e+00
      outer loop
         vertex -1.704576e-13 3.000000e+00 0.000000e+00
         vertex 4.330127e+00 3.500000e+00 0.000000e+00
         vertex 3.623020e+00 3.207107e+00 0.000000e+00
      endloop
   endfacet
   facet normal 0.000000e+00 0.000000e+00 -1.000000e+00
      outer loop
         vertex -1.704576e-13 3.000000e+00 0.000000e+00
         vertex -3.623020e+00 3.207107e+00 0.000000e+00
         vertex -4.330127e+00 3.500000e+00 0.000000e+00
      endloop
   endfacet
   facet normal 0.000000e+00 0.000000e+00 -1.000000e+00
      outer loop
         vertex -1.500000e+00 2.598076e+00 0.000000e+00
         vertex -3.330127e+00 2.500000e+00 0.000000e+00
         vertex -3.623020e+00 3.207107e+00 0.000000e+00
      endloop
   endfacet
   facet normal 0.000000e+00 0.000000e+00 -1.000000e+00
      outer loop
         vertex -2.598076e+00 1.500000e+00 0.000000e+00
         vertex -3.623020e+00 1.792893e+00 0.000000e+00
         vertex -3.330127e+00 2.500000e+00 0.000000e+00
      endloop
   endfacet
   facet normal 0.000000e+00 0.000000e+00 -1.000000e+00
      outer loop
         vertex -3.390996e+00 7.342044e-01 0.000000e+00
         vertex -4.330127e+00 1.500000e+00 0.000000e+00
         vertex -3.623020e+00 1.792893e+00 0.000000e+00
      endloop
   endfacet
   facet normal 0.000000e+00 -0.000000e+00 -1.000000e+00
      outer loop
         vertex -5.505183e+00 8.815920e-01 0.000000e+00
         vertex -5.037234e+00 1.792893e+00 0.000000e+00
         vertex -4.330127e+00 1.500000e+00 0.000000e+00
      endloop
   endfacet
   facet normal 0.000000e+00 -0.000000e+00 -1.000000e+00
      outer loop
         vertex -6.184176e+00 1.750000e+00 0.000000e+00
         vertex -5.330127e+00 2.500000e+00 0.000000e+00
         vertex -5.037234e+00 1.792893e+00 0.000000e+00
      endloop
   endfacet
   facet normal 0.000000e+00 0.000000e+00 -1.000000e+00
      outer loop
         vertex -6.920192e+00 2.658312e+00 0.000000e+00
         vertex -5.037234e+00 3.207107e+00 0.000000e+00
         vertex -5.330127e+00 2.500000e+00 0.000000e+00
      endloop
   endfacet
   facet normal 0.000000e+00 0.000000e+00 -1.000000e+00
      outer loop
         vertex -8.038226e+00 3.000000e+00 0.000000e+00
         vertex -4.330127e+00 3.500000e+00 0.000000e+00
         vertex -5.037234e+00 3.207107e+00 0.000000e+00
      endloop
   endfacet
   facet normal 0.000000e+00 0.000000e+00 -1.000000e+00
      outer loop
         vertex 6.840403e-01 1.879385e+00 0.000000e+00
         vertex 7.071068e-01 7.071068e-01 0.000000e+00
         vertex -1.675596e-13 1.000000e+00 0.000000e+00
      endloop
   endfacet
   facet normal 0.000000e+00 0.000000e+00 -1.000000e+00
      outer loop
         vertex 1.732051e+00 1.000000e+00 0.000000e+00
         vertex 1.000000e+00 1.286498e-15 0.000000e+00
         vertex 7.071068e-01 7.071068e-01 0.000000e+00
      endloop
   endfacet
   facet normal 0.000000e+00 0.000000e+00 -1.000000e+00
      outer loop
         vertex 2.833250e+00 -9.987674e-02 0.000000e+00
         vertex 7.071068e-01 -7.071068e-01 0.000000e+00
         vertex 1.000000e+00 1.286498e-15 0.000000e+00
      endloop
   endfacet
   facet normal 0.000000e+00 0.000000e+00 -1.000000e+00
      outer loop
         vertex 4.337337e+00 -4.999913e-01 0.000000e+00
         vertex -1.647416e-13 -1.000000e+00 0.000000e+00
         vertex 7.071068e-01 -7.071068e-01 0.000000e+00
      endloop
   endfacet
   facet normal -0.000000e+00 -0.000000e+00 -1.000000e+00
      outer loop
         vertex -4.337337e+00 -4.999913e-01 0.000000e+00
         vertex -7.071068e-01 -7.071068e-01 0.000000e+00
         vertex -1.647416e-13 -1.000000e+00 0.000000e+00
      endloop
   endfacet
   facet normal 0.000000e+00 -0.000000e+00 -1.000000e+00
      outer loop
         vertex -2.833250e+00 -9.987674e-02 0.000000e+00
         vertex -1.000000e+00 -1.408963e-15 0.000000e+00
         vertex -7.071068e-01 -7.071068e-01 0.000000e+00
      endloop
   endfacet
   facet normal -0.000000e+00 0.000000e+00 -1.000000e+00
      outer loop
         vertex -1.732051e+00 1.000000e+00 0.000000e+00
         vertex -7.071068e-01 7.071068e-01 0.000000e+00
         vertex -1.000000e+00 -1.408963e-15 0.000000e+00
      endloop
   endfacet
   facet normal -0.000000e+00 0.000000e+00 -1.000000e+00
      outer loop
         vertex -6.840403e-01 1.879385e+00 0.000000e+00
         vertex -1.675596e-13 1.000000e+00 0.000000e+00
         vertex -7.071068e-01 7.071068e-01 0.000000e+00
      endloop
   endfacet
   facet normal 0.000000e+00 0.000000e+00 -1.000000e+00
      outer loop
         vertex 8.038226e+00 3.000000e+00 0.000000e+00
         vertex 4.330127e+00 3.500000e+00 0.000000e+00
         vertex 1.600000e+01 4.500000e+00 0.000000e+00
      endloop
   endfacet
   facet normal 0.000000e+00 0.000000e+00 -1.000000e+00
      outer loop
         vertex -4.330127e+00 3.500000e+00 0.000000e+00
         vertex -1.600000e+01 4.500000e+00 0.000000e+00
         vertex 4.330127e+00 3.500000e+00 0.000000e+00
      endloop
   endfacet
   facet normal -0.000000e+00 0.000000e+00 -1.000000e+00
      outer loop
         vertex -4.337337e+00 -4.999913e-01 0.000000e+00
         vertex -1.647416e-13 -1.000000e+00 0.000000e+00
         vertex -1.600000e+01 -2.000000e+00 0.000000e+00
      endloop
   endfacet
   facet normal 0.000000e+00 0.000000e+00 -1.000000e+00
      outer loop
         vertex 4.337337e+00 -4.999913e-01 0.000000e+00
         vertex 1.600000e+01 -2.000000e+00 0.000000e+00
         vertex -1.647416e-13 -1.000000e+00 0.000000e+00
      endloop
   endfacet
   facet normal 0.000000e+00 0.000000e+00 -1.000000e+00
      outer loop
         vertex -4.330127e+00 3.500000e+00 0.000000e+00
         vertex -8.038226e+00 3.000000e+00 0.000000e+00
         vertex -1.600000e+01 4.500000e+00 0.000000e+00
      endloop
   endfacet
   facet normal -0.000000e+00 0.000000e+00 -1.000000e+00
      outer loop
         vertex -4.330127e+00 3.500000e+00 0.000000e+00
         vertex 4.330127e+00 3.500000e+00 0.000000e+00
         vertex -1.704576e-13 3.000000e+00 0.000000e+00
      endloop
   endfacet
   facet normal 0.000000e+00 0.000000e+00 1.000000e+00
      outer loop
         vertex 1.762500e+01 4.064582e+00 1.500000e+00
         vertex 1.600000e+01 4.500000e+00 1.500000e+00
         vertex 1.600000e+01 3.000000e+00 1.500000e+00
      endloop
   endfacet
   facet normal -0.000000e+00 0.000000e+00 1.000000e+00
      outer loop
         vertex 1.600000e+01 4.500000e+00 1.500000e+00
         vertex -1.600000e+01 4.500000e+00 1.500000e+00
         vertex 4.330127e+00 3.500000e+00 1.500000e+00
      endloop
   endfacet
   facet normal -0.000000e+00 0.000000e+00 1.000000e+00
      outer loop
         vertex -1.600000e+01 4.500000e+00 1.500000e+00
         vertex -1.762500e+01 4.064582e+00 1.500000e+00
         vertex -1.600000e+01 3.000000e+00 1.500000e+00
      endloop
   endfacet
   facet normal -0.000000e+00 0.000000e+00 1.000000e+00
      outer loop
         vertex -1.762500e+01 4.064582e+00 1.500000e+00
         vertex -1.881458e+01 2.875000e+00 1.500000e+00
         vertex -1.702862e+01 2.665780e+00 1.500000e+00
      endloop
   endfacet
   facet normal 0.000000e+00 0.000000e+00 1.000000e+00
      outer loop
         vertex -1.881458e+01 2.875000e+00 1.500000e+00
         vertex -1.925000e+01 1.250000e+00 1.500000e+00
         vertex -1.766435e+01 1.790780e+00 1.500000e+00
      endloop
   endfacet
   facet normal 0.000000e+00 -0.000000e+00 1.000000e+00
      outer loop
         vertex -1.925000e+01 1.250000e+00 1.500000e+00
         vertex -1.881458e+01 -3.750000e-01 1.500000e+00
         vertex -1.766435e+01 7.092202e-01 1.500000e+00
      endloop
   endfacet
   facet normal 0.000000e+00 -0.000000e+00 1.000000e+00
      outer loop
         vertex -1.881458e+01 -3.750000e-01 1.500000e+00
         vertex -1.762500e+01 -1.564583e+00 1.500000e+00
         vertex -1.702862e+01 -1.657797e-01 1.500000e+00
      endloop
   endfacet
   facet normal 0.000000e+00 -0.000000e+00 1.000000e+00
      outer loop
         vertex -1.762500e+01 -1.564583e+00 1.500000e+00
         vertex -1.600000e+01 -2.000000e+00 1.500000e+00
         vertex -1.600000e+01 -5.000000e-01 1.500000e+00
      endloop
   endfacet
   facet normal 0.000000e+00 0.000000e+00 1.000000e+00
      outer loop
         vertex -1.600000e+01 -2.000000e+00 1.500000e+00
         vertex 1.600000e+01 -2.000000e+00 1.500000e+00
         vertex -1.647416e-13 -1.000000e+00 1.500000e+00
      endloop
   endfacet
   facet normal 0.000000e+00 0.000000e+00 1.000000e+00
      outer loop
         vertex 1.600000e+01 -2.000000e+00 1.500000e+00
         vertex 1.762500e+01 -1.564583e+00 1.500000e+00
         vertex 1.600000e+01 -5.000000e-01 1.500000e+00
      endloop
   endfacet
   facet normal 0.000000e+00 0.000000e+00 1.000000e+00
      outer loop
         vertex 1.762500e+01 -1.564583e+00 1.500000e+00
         vertex 1.881458e+01 -3.750000e-01 1.500000e+00
         vertex 1.702862e+01 -1.657797e-01 1.500000e+00
      endloop
   endfacet
   facet normal 0.000000e+00 0.000000e+00 1.000000e+00
      outer loop
         vertex 1.881458e+01 -3.750000e-01 1.500000e+00
         vertex 1.925000e+01 1.250000e+00 1.500000e+00
         vertex 1.766435e+01 7.092202e-01 1.500000e+00
      endloop
   endfacet
   facet normal 0.000000e+00 0.000000e+00 1.000000e+00
      outer loop
         vertex 1.925000e+01 1.250000e+00 1.500000e+00
         vertex 1.881458e+01 2.875000e+00 1.500000e+00
         vertex 1.766435e+01 1.790780e+00 1.500000e+00
      endloop
   endfacet
   facet normal 0.000000e+00 0.000000e+00 1.000000e+00
      outer loop
         vertex 1.881458e+01 2.875000e+00 1.500000e+00
         vertex 1.762500e+01 4.064582e+00 1.500000e+00
         vertex 1.702862e+01 2.665780e+00 1.500000e+00
      endloop
   endfacet
   facet normal -0.000000e+00 0.000000e+00 1.000000e+00
      outer loop
         vertex -6.840403e-01 1.879385e+00 1.500000e+00
         vertex -1.732051e+00 1.000000e+00 1.500000e+00
         vertex -7.071068e-01 7.071068e-01 1.500000e+00
      endloop
   endfacet
   facet normal 0.000000e+00 0.000000e+00 1.000000e+00
      outer loop
         vertex -1.732051e+00 1.000000e+00 1.500000e+00
         vertex -2.833250e+00 -9.987674e-02 1.500000e+00
         vertex -1.000000e+00 -1.408963e-15 1.500000e+00
      endloop
   endfacet
   facet normal -0.000000e+00 0.000000e+00 1.000000e+00
      outer loop
         vertex -2.833250e+00 -9.987674e-02 1.500000e+00
         vertex -4.337337e+00 -4.999913e-01 1.500000e+00
         vertex -7.071068e-01 -7.071068e-01 1.500000e+00
      endloop
   endfacet
   facet normal -0.000000e+00 0.000000e+00 1.000000e+00
      outer loop
         vertex -4.337337e+00 -4.999913e-01 1.500000e+00
         vertex -1.600000e+01 -5.000000e-01 1.500000e+00
         vertex -1.600000e+01 -2.000000e+00 1.500000e+00
      endloop
   endfacet
   facet normal 0.000000e+00 0.000000e+00 1.000000e+00
      outer loop
         vertex -1.600000e+01 -5.000000e-01 1.500000e+00
         vertex -1.702862e+01 -1.657797e-01 1.500000e+00
         vertex -1.762500e+01 -1.564583e+00 1.500000e+00
      endloop
   endfacet
   facet normal 0.000000e+00 0.000000e+00 1.000000e+00
      outer loop
         vertex -1.702862e+01 -1.657797e-01 1.500000e+00
         vertex -1.766435e+01 7.092202e-01 1.500000e+00
         vertex -1.881458e+01 -3.750000e-01 1.500000e+00
      endloop
   endfacet
   facet normal 0.000000e+00 0.000000e+00 1.000000e+00
      outer loop
         vertex -1.766435e+01 7.092202e-01 1.500000e+00
         vertex -1.766435e+01 1.790780e+00 1.500000e+00
         vertex -1.925000e+01 1.250000e+00 1.500000e+00
      endloop
   endfacet
   facet normal 0.000000e+00 0.000000e+00 1.000000e+00
      outer loop
         vertex -1.766435e+01 1.790780e+00 1.500000e+00
         vertex -1.702862e+01 2.665780e+00 1.500000e+00
         vertex -1.881458e+01 2.875000e+00 1.500000e+00
      endloop
   endfacet
   facet normal 0.000000e+00 0.000000e+00 1.000000e+00
      outer loop
         vertex -1.702862e+01 2.665780e+00 1.500000e+00
         vertex -1.600000e+01 3.000000e+00 1.500000e+00
         vertex -1.762500e+01 4.064582e+00 1.500000e+00
      endloop
   endfacet
   facet normal 0.000000e+00 0.000000e+00 1.000000e+00
      outer loop
         vertex -1.600000e+01 3.000000e+00 1.500000e+00
         vertex -8.038226e+00 3.000000e+00 1.500000e+00
         vertex -1.600000e+01 4.500000e+00 1.500000e+00
      endloop
   endfacet
   facet normal 0.000000e+00 -0.000000e+00 1.000000e+00
      outer loop
         vertex -8.038226e+00 3.000000e+00 1.500000e+00
         vertex -6.920192e+00 2.658312e+00 1.500000e+00
         vertex -5.037234e+00 3.207107e+00 1.500000e+00
      endloop
   endfacet
   facet normal 0.000000e+00 -0.000000e+00 1.000000e+00
      outer loop
         vertex -6.920192e+00 2.658312e+00 1.500000e+00
         vertex -6.184176e+00 1.750000e+00 1.500000e+00
         vertex -5.330127e+00 2.500000e+00 1.500000e+00
      endloop
   endfacet
   facet normal 0.000000e+00 -0.000000e+00 1.000000e+00
      outer loop
         vertex -6.184176e+00 1.750000e+00 1.500000e+00
         vertex -5.505183e+00 8.815920e-01 1.500000e+00
         vertex -5.037234e+00 1.792893e+00 1.500000e+00
      endloop
   endfacet
   facet normal 0.000000e+00 -0.000000e+00 1.000000e+00
      outer loop
         vertex -5.505183e+00 8.815920e-01 1.500000e+00
         vertex -4.469217e+00 5.048423e-01 1.500000e+00
         vertex -4.330127e+00 1.500000e+00 1.500000e+00
      endloop
   endfacet
   facet normal 0.000000e+00 0.000000e+00 1.000000e+00
      outer loop
         vertex -4.469217e+00 5.048423e-01 1.500000e+00
         vertex -3.390996e+00 7.342044e-01 1.500000e+00
         vertex -4.330127e+00 1.500000e+00 1.500000e+00
      endloop
   endfacet
   facet normal 0.000000e+00 0.000000e+00 1.000000e+00
      outer loop
         vertex -3.390996e+00 7.342044e-01 1.500000e+00
         vertex -2.598076e+00 1.500000e+00 1.500000e+00
         vertex -3.623020e+00 1.792893e+00 1.500000e+00
      endloop
   endfacet
   facet normal 0.000000e+00 0.000000e+00 1.000000e+00
      outer loop
         vertex -2.598076e+00 1.500000e+00 1.500000e+00
         vertex -1.500000e+00 2.598076e+00 1.500000e+00
         vertex -3.330127e+00 2.500000e+00 1.500000e+00
      endloop
   endfacet
   facet normal 0.000000e+00 0.000000e+00 1.000000e+00
      outer loop
         vertex -1.500000e+00 2.598076e+00 1.500000e+00
         vertex -1.704576e-13 3.000000e+00 1.500000e+00
         vertex -3.623020e+00 3.207107e+00 1.500000e+00
      endloop
   endfacet
   facet normal 0.000000e+00 -0.000000e+00 1.000000e+00
      outer loop
         vertex -1.704576e-13 3.000000e+00 1.500000e+00
         vertex 1.500000e+00 2.598076e+00 1.500000e+00
         vertex 3.623020e+00 3.207107e+00 1.500000e+00
      endloop
   endfacet
   facet normal 0.000000e+00 -0.000000e+00 1.000000e+00
      outer loop
         vertex 1.500000e+00 2.598076e+00 1.500000e+00
         vertex 2.598076e+00 1.500000e+00 1.500000e+00
         vertex 3.330127e+00 2.500000e+00 1.500000e+00
      endloop
   endfacet
   facet normal 0.000000e+00 -0.000000e+00 1.000000e+00
      outer loop
         vertex 2.598076e+00 1.500000e+00 1.500000e+00
         vertex 3.390996e+00 7.342044e-01 1.500000e+00
         vertex 3.623020e+00 1.792893e+00 1.500000e+00
      endloop
   endfacet
   facet normal 0.000000e+00 0.000000e+00 1.000000e+00
      outer loop
         vertex 3.390996e+00 7.342044e-01 1.500000e+00
         vertex 4.469217e+00 5.048423e-01 1.500000e+00
         vertex 4.330127e+00 1.500000e+00 1.500000e+00
      endloop
   endfacet
   facet normal 0.000000e+00 0.000000e+00 1.000000e+00
      outer loop
         vertex 4.469217e+00 5.048423e-01 1.500000e+00
         vertex 5.505183e+00 8.815920e-01 1.500000e+00
         vertex 4.330127e+00 1.500000e+00 1.500000e+00
      endloop
   endfacet
   facet normal 0.000000e+00 0.000000e+00 1.000000e+00
      outer loop
         vertex 5.505183e+00 8.815920e-01 1.500000e+00
         vertex 6.184176e+00 1.750000e+00 1.500000e+00
         vertex 5.037234e+00 1.792893e+00 1.500000e+00
      endloop
   endfacet
   facet normal 0.000000e+00 0.000000e+00 1.000000e+00
      outer loop
         vertex 6.184176e+00 1.750000e+00 1.500000e+00
         vertex 6.920192e+00 2.658312e+00 1.500000e+00
         vertex 5.330127e+00 2.500000e+00 1.500000e+00
      endloop
   endfacet
   facet normal 0.000000e+00 0.000000e+00 1.000000e+00
      outer loop
         vertex 6.920192e+00 2.658312e+00 1.500000e+00
         vertex 8.038226e+00 3.000000e+00 1.500000e+00
         vertex 5.037234e+00 3.207107e+00 1.500000e+00
      endloop
   endfacet
   facet normal 0.000000e+00 -0.000000e+00 1.000000e+00
      outer loop
         vertex 8.038226e+00 3.000000e+00 1.500000e+00
         vertex 1.600000e+01 3.000000e+00 1.500000e+00
         vertex 1.600000e+01 4.500000e+00 1.500000e+00
      endloop
   endfacet
   facet normal 0.000000e+00 -0.000000e+00 1.000000e+00
      outer loop
         vertex 1.600000e+01 3.000000e+00 1.500000e+00
         vertex 1.702862e+01 2.665780e+00 1.500000e+00
         vertex 1.762500e+01 4.064582e+00 1.500000e+00
      endloop
   endfacet
   facet normal 0.000000e+00 -0.000000e+00 1.000000e+00
      outer loop
         vertex 1.702862e+01 2.665780e+00 1.500000e+00
         vertex 1.766435e+01 1.790780e+00 1.500000e+00
         vertex 1.881458e+01 2.875000e+00 1.500000e+00
      endloop
   endfacet
   facet normal 0.000000e+00 0.000000e+00 1.000000e+00
      outer loop
         vertex 1.766435e+01 1.790780e+00 1.500000e+00
         vertex 1.766435e+01 7.092202e-01 1.500000e+00
         vertex 1.925000e+01 1.250000e+00 1.500000e+00
      endloop
   endfacet
   facet normal -0.000000e+00 0.000000e+00 1.000000e+00
      outer loop
         vertex 1.766435e+01 7.092202e-01 1.500000e+00
         vertex 1.702862e+01 -1.657797e-01 1.500000e+00
         vertex 1.881458e+01 -3.750000e-01 1.500000e+00
      endloop
   endfacet
   facet normal -0.000000e+00 0.000000e+00 1.000000e+00
      outer loop
         vertex 1.702862e+01 -1.657797e-01 1.500000e+00
         vertex 1.600000e+01 -5.000000e-01 1.500000e+00
         vertex 1.762500e+01 -1.564583e+00 1.500000e+00
      endloop
   endfacet
   facet normal 0.000000e+00 0.000000e+00 1.000000e+00
      outer loop
         vertex 1.600000e+01 -5.000000e-01 1.500000e+00
         vertex 4.337337e+00 -4.999913e-01 1.500000e+00
         vertex 1.600000e+01 -2.000000e+00 1.500000e+00
      endloop
   endfacet
   facet normal 0.000000e+00 0.000000e+00 1.000000e+00
      outer loop
         vertex 4.337337e+00 -4.999913e-01 1.500000e+00
         vertex 2.833250e+00 -9.987674e-02 1.500000e+00
         vertex 7.071068e-01 -7.071068e-01 1.500000e+00
      endloop
   endfacet
   facet normal 0.000000e+00 0.000000e+00 1.000000e+00
      outer loop
         vertex 2.833250e+00 -9.987674e-02 1.500000e+00
         vertex 1.732051e+00 1.000000e+00 1.500000e+00
         vertex 1.000000e+00 1.286498e-15 1.500000e+00
      endloop
   endfacet
   facet normal 0.000000e+00 0.000000e+00 1.000000e+00
      outer loop
         vertex 1.732051e+00 1.000000e+00 1.500000e+00
         vertex 6.840403e-01 1.879385e+00 1.500000e+00
         vertex 7.071068e-01 7.071068e-01 1.500000e+00
      endloop
   endfacet
   facet normal -0.000000e+00 0.000000e+00 1.000000e+00
      outer loop
         vertex 6.840403e-01 1.879385e+00 1.500000e+00
         vertex -6.840403e-01 1.879385e+00 1.500000e+00
         vertex -1.675596e-13 1.000000e+00 1.500000e+00
      endloop
   endfacet
   facet normal 0.000000e+00 0.000000e+00 1.000000e+00
      outer loop
         vertex 3.623020e+00 3.207107e+00 1.500000e+00
         vertex 4.330127e+00 3.500000e+00 1.500000e+00
         vertex -1.704576e-13 3.000000e+00 1.500000e+00
      endloop
   endfacet
   facet normal -0.000000e+00 -0.000000e+00 1.000000e+00
      outer loop
         vertex 4.330127e+00 3.500000e+00 1.500000e+00
         vertex 5.037234e+00 3.207107e+00 1.500000e+00
         vertex 8.038226e+00 3.000000e+00 1.500000e+00
      endloop
   endfacet
   facet normal 0.000000e+00 -0.000000e+00 1.000000e+00
      outer loop
         vertex 5.037234e+00 3.207107e+00 1.500000e+00
         vertex 5.330127e+00 2.500000e+00 1.500000e+00
         vertex 6.920192e+00 2.658312e+00 1.500000e+00
      endloop
   endfacet
   facet normal -0.000000e+00 0.000000e+00 1.000000e+00
      outer loop
         vertex 5.330127e+00 2.500000e+00 1.500000e+00
         vertex 5.037234e+00 1.792893e+00 1.500000e+00
         vertex 6.184176e+00 1.750000e+00 1.500000e+00
      endloop
   endfacet
   facet normal -0.000000e+00 0.000000e+00 1.000000e+00
      outer loop
         vertex 5.037234e+00 1.792893e+00 1.500000e+00
         vertex 4.330127e+00 1.500000e+00 1.500000e+00
         vertex 5.505183e+00 8.815920e-01 1.500000e+00
      endloop
   endfacet
   facet normal 0.000000e+00 0.000000e+00 1.000000e+00
      outer loop
         vertex 4.330127e+00 1.500000e+00 1.500000e+00
         vertex 3.623020e+00 1.792893e+00 1.500000e+00
         vertex 3.390996e+00 7.342044e-01 1.500000e+00
      endloop
   endfacet
   facet normal 0.000000e+00 0.000000e+00 1.000000e+00
      outer loop
         vertex 3.623020e+00 1.792893e+00 1.500000e+00
         vertex 3.330127e+00 2.500000e+00 1.500000e+00
         vertex 2.598076e+00 1.500000e+00 1.500000e+00
      endloop
   endfacet
   facet normal 0.000000e+00 0.000000e+00 1.000000e+00
      outer loop
         vertex 3.330127e+00 2.500000e+00 1.500000e+00
         vertex 3.623020e+00 3.207107e+00 1.500000e+00
         vertex 1.500000e+00 2.598076e+00 1.500000e+00
      endloop
   endfacet
   facet normal 0.000000e+00 0.000000e+00 1.000000e+00
      outer loop
         vertex -5.037234e+00 3.207107e+00 1.500000e+00
         vertex -4.330127e+00 3.500000e+00 1.500000e+00
         vertex -8.038226e+00 3.000000e+00 1.500000e+00
      endloop
   endfacet
   facet normal -0.000000e+00 -0.000000e+00 1.000000e+00
      outer loop
         vertex -4.330127e+00 3.500000e+00 1.500000e+00
         vertex -3.623020e+00 3.207107e+00 1.500000e+00
         vertex -1.704576e-13 3.000000e+00 1.500000e+00
      endloop
   endfacet
   facet normal 0.000000e+00 -0.000000e+00 1.000000e+00
      outer loop
         vertex -3.623020e+00 3.207107e+00 1.500000e+00
         vertex -3.330127e+00 2.500000e+00 1.500000e+00
         vertex -1.500000e+00 2.598076e+00 1.500000e+00
      endloop
   endfacet
   facet normal -0.000000e+00 0.000000e+00 1.000000e+00
      outer loop
         vertex -3.330127e+00 2.500000e+00 1.500000e+00
         vertex -3.623020e+00 1.792893e+00 1.500000e+00
         vertex -2.598076e+00 1.500000e+00 1.500000e+00
      endloop
   endfacet
   facet normal -0.000000e+00 0.000000e+00 1.000000e+00
      outer loop
         vertex -3.623020e+00 1.792893e+00 1.500000e+00
         vertex -4.330127e+00 1.500000e+00 1.500000e+00
         vertex -3.390996e+00 7.342044e-01 1.500000e+00
      endloop
   endfacet
   facet normal 0.000000e+00 0.000000e+00 1.000000e+00
      outer loop
         vertex -4.330127e+00 1.500000e+00 1.500000e+00
         vertex -5.037234e+00 1.792893e+00 1.500000e+00
         vertex -5.505183e+00 8.815920e-01 1.500000e+00
      endloop
   endfacet
   facet normal 0.000000e+00 0.000000e+00 1.000000e+00
      outer loop
         vertex -5.037234e+00 1.792893e+00 1.500000e+00
         vertex -5.330127e+00 2.500000e+00 1.500000e+00
         vertex -6.184176e+00 1.750000e+00 1.500000e+00
      endloop
   endfacet
   facet normal 0.000000e+00 0.000000e+00 1.000000e+00
      outer loop
         vertex -5.330127e+00 2.500000e+00 1.500000e+00
         vertex -5.037234e+00 3.207107e+00 1.500000e+00
         vertex -6.920192e+00 2.658312e+00 1.500000e+00
      endloop
   endfacet
   facet normal 0.000000e+00 0.000000e+00 1.000000e+00
      outer loop
         vertex -7.071068e-01 7.071068e-01 1.500000e+00
         vertex -1.675596e-13 1.000000e+00 1.500000e+00
         vertex -6.840403e-01 1.879385e+00 1.500000e+00
      endloop
   endfacet
   facet normal 0.000000e+00 0.000000e+00 1.000000e+00
      outer loop
         vertex -1.675596e-13 1.000000e+00 1.500000e+00
         vertex 7.071068e-01 7.071068e-01 1.500000e+00
         vertex 6.840403e-01 1.879385e+00 1.500000e+00
      endloop
   endfacet
   facet normal 0.000000e+00 -0.000000e+00 1.000000e+00
      outer loop
         vertex 7.071068e-01 7.071068e-01 1.500000e+00
         vertex 1.000000e+00 1.286498e-15 1.500000e+00
         vertex 1.732051e+00 1.000000e+00 1.500000e+00
      endloop
   endfacet
   facet normal 0.000000e+00 0.000000e+00 1.000000e+00
      outer loop
         vertex 1.000000e+00 1.286498e-15 1.500000e+00
         vertex 7.071068e-01 -7.071068e-01 1.500000e+00
         vertex 2.833250e+00 -9.987674e-02 1.500000e+00
      endloop
   endfacet
   facet normal 0.000000e+00 0.000000e+00 1.000000e+00
      outer loop
         vertex 7.071068e-01 -7.071068e-01 1.500000e+00
         vertex -1.647416e-13 -1.000000e+00 1.500000e+00
         vertex 4.337337e+00 -4.999913e-01 1.500000e+00
      endloop
   endfacet
   facet normal 0.000000e+00 0.000000e+00 1.000000e+00
      outer loop
         vertex -1.647416e-13 -1.000000e+00 1.500000e+00
         vertex -7.071068e-01 -7.071068e-01 1.500000e+00
         vertex -4.337337e+00 -4.999913e-01 1.500000e+00
      endloop
   endfacet
   facet normal 0.000000e+00 0.000000e+00 1.000000e+00
      outer loop
         vertex -7.071068e-01 -7.071068e-01 1.500000e+00
         vertex -1.000000e+00 -1.408963e-15 1.500000e+00
         vertex -2.833250e+00 -9.987674e-02 1.500000e+00
      endloop
   endfacet
   facet normal 0.000000e+00 0.000000e+00 1.000000e+00
      outer loop
         vertex -1.000000e+00 -1.408963e-15 1.500000e+00
         vertex -7.071068e-01 7.071068e-01 1.500000e+00
         vertex -1.732051e+00 1.000000e+00 1.500000e+00
      endloop
   endfacet
   facet normal -0.000000e+00 0.000000e+00 1.000000e+00
      outer loop
         vertex 1.600000e+01 4.500000e+00 1.500000e+00
         vertex 4.330127e+00 3.500000e+00 1.500000e+00
         vertex 8.038226e+00 3.000000e+00 1.500000e+00
      endloop
   endfacet
   facet normal 0.000000e+00 0.000000e+00 1.000000e+00
      outer loop
         vertex 4.330127e+00 3.500000e+00 1.500000e+00
         vertex -1.600000e+01 4.500000e+00 1.500000e+00
         vertex -4.330127e+00 3.500000e+00 1.500000e+00
      endloop
   endfacet
   facet normal 0.000000e+00 0.000000e+00 1.000000e+00
      outer loop
         vertex -1.600000e+01 -2.000000e+00 1.500000e+00
         vertex -1.647416e-13 -1.000000e+00 1.500000e+00
         vertex -4.337337e+00 -4.999913e-01 1.500000e+00
      endloop
   endfacet
   facet normal 0.000000e+00 0.000000e+00 1.000000e+00
      outer loop
         vertex -1.647416e-13 -1.000000e+00 1.500000e+00
         vertex 1.600000e+01 -2.000000e+00 1.500000e+00
         vertex 4.337337e+00 -4.999913e-01 1.500000e+00
      endloop
   endfacet
   facet normal 0.000000e+00 -0.000000e+00 1.000000e+00
      outer loop
         vertex -1.600000e+01 4.500000e+00 1.500000e+00
         vertex -8.038226e+00 3.000000e+00 1.500000e+00
         vertex -4.330127e+00 3.500000e+00 1.500000e+00
      endloop
   endfacet
   facet normal 0.000000e+00 0.000000e+00 1.000000e+00
      outer loop
         vertex -1.704576e-13 3.000000e+00 1.500000e+00
         vertex 4.330127e+00 3.500000e+00 1.500000e+00
         vertex -4.330127e+00 3.500000e+00 1.500000e+00
      endloop
   endfacet
   facet normal 3.826835e-01 -9.238795e-01 0.000000e+00
      outer loop
         vertex -7.071068e-01 7.071068e-01 1.500000e+00
         vertex -7.071068e-01 7.071068e-01 0.000000e+00
         vertex -1.675596e-13 1.000000e+00 0.000000e+00
      endloop
   endfacet
   facet normal 3.826835e-01 -9.238795e-01 0.000000e+00
      outer loop
         vertex -1.675596e-13 1.000000e+00 1.500000e+00
         vertex -7.071068e-01 7.071068e-01 1.500000e+00
         vertex -1.675596e-13 1.000000e+00 0.000000e+00
      endloop
   endfacet
   facet normal 9.238795e-01 -3.826835e-01 0.000000e+00
      outer loop
         vertex -1.000000e+00 -1.408963e-15 1.500000e+00
         vertex -1.000000e+00 -1.408963e-15 0.000000e+00
         vertex -7.071068e-01 7.071068e-01 0.000000e+00
      endloop
   endfacet
   facet normal 9.238795e-01 -3.826835e-01 0.000000e+00
      outer loop
         vertex -7.071068e-01 7.071068e-01 1.500000e+00
         vertex -1.000000e+00 -1.408963e-15 1.500000e+00
         vertex -7.071068e-01 7.071068e-01 0.000000e+00
      endloop
   endfacet
   facet normal 9.238795e-01 3.826835e-01 -0.000000e+00
      outer loop
         vertex -7.071068e-01 -7.071068e-01 1.500000e+00
         vertex -7.071068e-01 -7.071068e-01 0.000000e+00
         vertex -1.000000e+00 -1.408963e-15 0.000000e+00
      endloop
   endfacet
   facet normal 9.238795e-01 3.826835e-01 0.000000e+00
      outer loop
         vertex -1.000000e+00 -1.408963e-15 1.500000e+00
         vertex -7.071068e-01 -7.071068e-01 1.500000e+00
         vertex -1.000000e+00 -1.408963e-15 0.000000e+00
      endloop
   endfacet
   facet normal 3.826835e-01 9.238795e-01 -0.000000e+00
      outer loop
         vertex -1.647416e-13 -1.000000e+00 1.500000e+00
         vertex -1.647416e-13 -1.000000e+00 0.000000e+00
         vertex -7.071068e-01 -7.071068e-01 0.000000e+00
      endloop
   endfacet
   facet normal 3.826835e-01 9.238795e-01 0.000000e+00
      outer loop
         vertex -7.071068e-01 -7.071068e-01 1.500000e+00
         vertex -1.647416e-13 -1.000000e+00 1.500000e+00
         vertex -7.071068e-01 -7.071068e-01 0.000000e+00
      endloop
   endfacet
   facet normal -3.826835e-01 9.238795e-01 0.000000e+00
      outer loop
         vertex 7.071068e-01 -7.071068e-01 1.500000e+00
         vertex 7.071068e-01 -7.071068e-01 0.000000e+00
         vertex -1.647416e-13 -1.000000e+00 0.000000e+00
      endloop
   endfacet
   facet normal -3.826835e-01 9.238795e-01 0.000000e+00
      outer loop
         vertex -1.647416e-13 -1.000000e+00 1.500000e+00
         vertex 7.071068e-01 -7.071068e-01 1.500000e+00
         vertex -1.647416e-13 -1.000000e+00 0.000000e+00
      endloop
   endfacet
   facet normal -9.238795e-01 3.826835e-01 0.000000e+00
      outer loop
         vertex 1.000000e+00 1.286498e-15 1.500000e+00
         vertex 1.000000e+00 1.286498e-15 0.000000e+00
         vertex 7.071068e-01 -7.071068e-01 0.000000e+00
      endloop
   endfacet
   facet normal -9.238795e-01 3.826835e-01 0.000000e+00
      outer loop
         vertex 7.071068e-01 -7.071068e-01 1.500000e+00
         vertex 1.000000e+00 1.286498e-15 1.500000e+00
         vertex 7.071068e-01 -7.071068e-01 0.000000e+00
      endloop
   endfacet
   facet normal -9.238795e-01 -3.826835e-01 0.000000e+00
      outer loop
         vertex 7.071068e-01 7.071068e-01 1.500000e+00
         vertex 7.071068e-01 7.071068e-01 0.000000e+00
         vertex 1.000000e+00 1.286498e-15 0.000000e+00
      endloop
   endfacet
   facet normal -9.238795e-01 -3.826835e-01 0.000000e+00
      outer loop
         vertex 1.000000e+00 1.286498e-15 1.500000e+00
         vertex 7.071068e-01 7.071068e-01 1.500000e+00
         vertex 1.000000e+00 1.286498e-15 0.000000e+00
      endloop
   endfacet
   facet normal -3.826835e-01 -9.238795e-01 0.000000e+00
      outer loop
         vertex -1.673146e-13 1.000000e+00 1.500000e+00
         vertex -1.673146e-13 1.000000e+00 0.000000e+00
         vertex 7.071068e-01 7.071068e-01 0.000000e+00
      endloop
   endfacet
   facet normal -3.826835e-01 -9.238795e-01 0.000000e+00
      outer loop
         vertex 7.071068e-01 7.071068e-01 1.500000e+00
         vertex -1.673146e-13 1.000000e+00 1.500000e+00
         vertex 7.071068e-01 7.071068e-01 0.000000e+00
      endloop
   endfacet
   facet normal 3.826835e-01 -9.238795e-01 0.000000e+00
      outer loop
         vertex -5.037234e+00 3.207107e+00 1.500000e+00
         vertex -5.037234e+00 3.207107e+00 0.000000e+00
         vertex -4.330127e+00 3.500000e+00 0.000000e+00
      endloop
   endfacet
   facet normal 3.826835e-01 -9.238795e-01 0.000000e+00
      outer loop
         vertex -4.330127e+00 3.500000e+00 1.500000e+00
         vertex -5.037234e+00 3.207107e+00 1.500000e+00
         vertex -4.330127e+00 3.500000e+00 0.000000e+00
      endloop
   endfacet
   facet normal 9.238795e-01 -3.826836e-01 0.000000e+00
      outer loop
         vertex -5.330127e+00 2.500000e+00 1.500000e+00
         vertex -5.330127e+00 2.500000e+00 0.000000e+00
         vertex -5.037234e+00 3.207107e+00 0.000000e+00
      endloop
   endfacet
   facet normal 9.238795e-01 -3.826836e-01 0.000000e+00
      outer loop
         vertex -5.037234e+00 3.207107e+00 1.500000e+00
         vertex -5.330127e+00 2.500000e+00 1.500000e+00
         vertex -5.037234e+00 3.207107e+00 0.000000e+00
      endloop
   endfacet
   facet normal 9.238795e-01 3.826836e-01 -0.000000e+00
      outer loop
         vertex -5.037234e+00 1.792893e+00 1.500000e+00
         vertex -5.037234e+00 1.792893e+00 0.000000e+00
         vertex -5.330127e+00 2.500000e+00 0.000000e+00
      endloop
   endfacet
   facet normal 9.238795e-01 3.826836e-01 0.000000e+00
      outer loop
         vertex -5.330127e+00 2.500000e+00 1.500000e+00
         vertex -5.037234e+00 1.792893e+00 1.500000e+00
         vertex -5.330127e+00 2.500000e+00 0.000000e+00
      endloop
   endfacet
   facet normal 3.826835e-01 9.238795e-01 -0.000000e+00
      outer loop
         vertex -4.330127e+00 1.500000e+00 1.500000e+00
         vertex -4.330127e+00 1.500000e+00 0.000000e+00
         vertex -5.037234e+00 1.792893e+00 0.000000e+00
      endloop
   endfacet
   facet normal 3.826835e-01 9.238795e-01 0.000000e+00
      outer loop
         vertex -5.037234e+00 1.792893e+00 1.500000e+00
         vertex -4.330127e+00 1.500000e+00 1.500000e+00
         vertex -5.037234e+00 1.792893e+00 0.000000e+00
      endloop
   endfacet
   facet normal -3.826832e-01 9.238796e-01 0.000000e+00
      outer loop
         vertex -3.623020e+00 1.792893e+00 1.500000e+00
         vertex -3.623020e+00 1.792893e+00 0.000000e+00
         vertex -4.330127e+00 1.500000e+00 0.000000e+00
      endloop
   endfacet
   facet normal -3.826832e-01 9.238796e-01 0.000000e+00
      outer loop
         vertex -4.330127e+00 1.500000e+00 1.500000e+00
         vertex -3.623020e+00 1.792893e+00 1.500000e+00
         vertex -4.330127e+00 1.500000e+00 0.000000e+00
      endloop
   endfacet
   facet normal -9.238796e-01 3.826834e-01 0.000000e+00
      outer loop
         vertex -3.330127e+00 2.500000e+00 1.500000e+00
         vertex -3.330127e+00 2.500000e+00 0.000000e+00
         vertex -3.623020e+00 1.792893e+00 0.000000e+00
      endloop
   endfacet
   facet normal -9.238796e-01 3.826834e-01 0.000000e+00
      outer loop
         vertex -3.623020e+00 1.792893e+00 1.500000e+00
         vertex -3.330127e+00 2.500000e+00 1.500000e+00
         vertex -3.623020e+00 1.792893e+00 0.000000e+00
      endloop
   endfacet
   facet normal -9.238796e-01 -3.826834e-01 0.000000e+00
      outer loop
         vertex -3.623020e+00 3.207107e+00 1.500000e+00
         vertex -3.623020e+00 3.207107e+00 0.000000e+00
         vertex -3.330127e+00 2.500000e+00 0.000000e+00
      endloop
   endfacet
   facet normal -9.238796e-01 -3.826834e-01 0.000000e+00
      outer loop
         vertex -3.330127e+00 2.500000e+00 1.500000e+00
         vertex -3.623020e+00 3.207107e+00 1.500000e+00
         vertex -3.330127e+00 2.500000e+00 0.000000e+00
      endloop
   endfacet
   facet normal -3.826832e-01 -9.238796e-01 0.000000e+00
      outer loop
         vertex -4.330127e+00 3.500000e+00 1.500000e+00
         vertex -4.330127e+00 3.500000e+00 0.000000e+00
         vertex -3.623020e+00 3.207107e+00 0.000000e+00
      endloop
   endfacet
   facet normal -3.826832e-01 -9.238796e-01 0.000000e+00
      outer loop
         vertex -3.623020e+00 3.207107e+00 1.500000e+00
         vertex -4.330127e+00 3.500000e+00 1.500000e+00
         vertex -3.623020e+00 3.207107e+00 0.000000e+00
      endloop
   endfacet
   facet normal 3.826832e-01 -9.238796e-01 0.000000e+00
      outer loop
         vertex 3.623020e+00 3.207107e+00 1.500000e+00
         vertex 3.623020e+00 3.207107e+00 0.000000e+00
         vertex 4.330127e+00 3.500000e+00 0.000000e+00
      endloop
   endfacet
   facet normal 3.826832e-01 -9.238796e-01 0.000000e+00
      outer loop
         vertex 4.330127e+00 3.500000e+00 1.500000e+00
         vertex 3.623020e+00 3.207107e+00 1.500000e+00
         vertex 4.330127e+00 3.500000e+00 0.000000e+00
      endloop
   endfacet
   facet normal 9.238796e-01 -3.826834e-01 0.000000e+00
      outer loop
         vertex 3.330127e+00 2.500000e+00 1.500000e+00
         vertex 3.330127e+00 2.500000e+00 0.000000e+00
         vertex 3.623020e+00 3.207107e+00 0.000000e+00
      endloop
   endfacet
   facet normal 9.238796e-01 -3.826834e-01 0.000000e+00
      outer loop
         vertex 3.623020e+00 3.207107e+00 1.500000e+00
         vertex 3.330127e+00 2.500000e+00 1.500000e+00
         vertex 3.623020e+00 3.207107e+00 0.000000e+00
      endloop
   endfacet
   facet normal 9.238796e-01 3.826834e-01 -0.000000e+00
      outer loop
         vertex 3.623020e+00 1.792893e+00 1.500000e+00
         vertex 3.623020e+00 1.792893e+00 0.000000e+00
         vertex 3.330127e+00 2.500000e+00 0.000000e+00
      endloop
   endfacet
   facet normal 9.238796e-01 3.826834e-01 0.000000e+00
      outer loop
         vertex 3.330127e+00 2.500000e+00 1.500000e+00
         vertex 3.623020e+00 1.792893e+00 1.500000e+00
         vertex 3.330127e+00 2.500000e+00 0.000000e+00
      endloop
   endfacet
   facet normal 3.826832e-01 9.238796e-01 -0.000000e+00
      outer loop
         vertex 4.330127e+00 1.500000e+00 1.500000e+00
         vertex 4.330127e+00 1.500000e+00 0.000000e+00
         vertex 3.623020e+00 1.792893e+00 0.000000e+00
      endloop
   endfacet
   facet normal 3.826832e-01 9.238796e-01 0.000000e+00
      outer loop
         vertex 3.623020e+00 1.792893e+00 1.500000e+00
         vertex 4.330127e+00 1.500000e+00 1.500000e+00
         vertex 3.623020e+00 1.792893e+00 0.000000e+00
      endloop
   endfacet
   facet normal -3.826835e-01 9.238795e-01 0.000000e+00
      outer loop
         vertex 5.037234e+00 1.792893e+00 1.500000e+00
         vertex 5.037234e+00 1.792893e+00 0.000000e+00
         vertex 4.330127e+00 1.500000e+00 0.000000e+00
      endloop
   endfacet
   facet normal -3.826835e-01 9.238795e-01 0.000000e+00
      outer loop
         vertex 4.330127e+00 1.500000e+00 1.500000e+00
         vertex 5.037234e+00 1.792893e+00 1.500000e+00
         vertex 4.330127e+00 1.500000e+00 0.000000e+00
      endloop
   endfacet
   facet normal -9.238795e-01 3.826836e-01 0.000000e+00
      outer loop
         vertex 5.330127e+00 2.500000e+00 1.500000e+00
         vertex 5.330127e+00 2.500000e+00 0.000000e+00
         vertex 5.037234e+00 1.792893e+00 0.000000e+00
      endloop
   endfacet
   facet normal -9.238795e-01 3.826836e-01 0.000000e+00
      outer loop
         vertex 5.037234e+00 1.792893e+00 1.500000e+00
         vertex 5.330127e+00 2.500000e+00 1.500000e+00
         vertex 5.037234e+00 1.792893e+00 0.000000e+00
      endloop
   endfacet
   facet normal -9.238795e-01 -3.826836e-01 0.000000e+00
      outer loop
         vertex 5.037234e+00 3.207107e+00 1.500000e+00
         vertex 5.037234e+00 3.207107e+00 0.000000e+00
         vertex 5.330127e+00 2.500000e+00 0.000000e+00
      endloop
   endfacet
   facet normal -9.238795e-01 -3.826836e-01 0.000000e+00
      outer loop
         vertex 5.330127e+00 2.500000e+00 1.500000e+00
         vertex 5.037234e+00 3.207107e+00 1.500000e+00
         vertex 5.330127e+00 2.500000e+00 0.000000e+00
      endloop
   endfacet
   facet normal -3.826835e-01 -9.238795e-01 0.000000e+00
      outer loop
         vertex 4.330127e+00 3.500000e+00 1.500000e+00
         vertex 4.330127e+00 3.500000e+00 0.000000e+00
         vertex 5.037234e+00 3.207107e+00 0.000000e+00
      endloop
   endfacet
   facet normal -3.826835e-01 -9.238795e-01 0.000000e+00
      outer loop
         vertex 5.037234e+00 3.207107e+00 1.500000e+00
         vertex 4.330127e+00 3.500000e+00 1.500000e+00
         vertex 5.037234e+00 3.207107e+00 0.000000e+00
      endloop
   endfacet
   facet normal -7.436102e-07 1.000000e+00 0.000000e+00
      outer loop
         vertex -4.337337e+00 -4.999913e-01 0.000000e+00
         vertex -1.600000e+01 -5.000000e-01 0.000000e+00
         vertex -1.600000e+01 -5.000000e-01 1.500000e+00
      endloop
   endfacet
   facet normal -7.436102e-07 1.000000e+00 0.000000e+00
      outer loop
         vertex -1.600000e+01 -5.000000e-01 1.500000e+00
         vertex -4.337337e+00 -4.999913e-01 1.500000e+00
         vertex -4.337337e+00 -4.999913e-01 0.000000e+00
      endloop
   endfacet
   facet normal 3.090171e-01 -9.510565e-01 0.000000e+00
      outer loop
         vertex -1.702862e+01 2.665780e+00 1.500000e+00
         vertex -1.702862e+01 2.665780e+00 0.000000e+00
         vertex -1.600000e+01 3.000000e+00 0.000000e+00
      endloop
   endfacet
   facet normal 3.090171e-01 -9.510565e-01 0.000000e+00
      outer loop
         vertex -1.600000e+01 3.000000e+00 1.500000e+00
         vertex -1.702862e+01 2.665780e+00 1.500000e+00
         vertex -1.600000e+01 3.000000e+00 0.000000e+00
      endloop
   endfacet
   facet normal 8.090169e-01 -5.877854e-01 0.000000e+00
      outer loop
         vertex -1.766435e+01 1.790780e+00 1.500000e+00
         vertex -1.766435e+01 1.790780e+00 0.000000e+00
         vertex -1.702862e+01 2.665780e+00 0.000000e+00
      endloop
   endfacet
   facet normal 8.090169e-01 -5.877854e-01 0.000000e+00
      outer loop
         vertex -1.702862e+01 2.665780e+00 1.500000e+00
         vertex -1.766435e+01 1.790780e+00 1.500000e+00
         vertex -1.702862e+01 2.665780e+00 0.000000e+00
      endloop
   endfacet
   facet normal 1.000000e+00 0.000000e+00 0.000000e+00
      outer loop
         vertex -1.766435e+01 7.092202e-01 1.500000e+00
         vertex -1.766435e+01 7.092202e-01 0.000000e+00
         vertex -1.766435e+01 1.790780e+00 0.000000e+00
      endloop
   endfacet
   facet normal 1.000000e+00 -0.000000e+00 0.000000e+00
      outer loop
         vertex -1.766435e+01 1.790780e+00 1.500000e+00
         vertex -1.766435e+01 7.092202e-01 1.500000e+00
         vertex -1.766435e+01 1.790780e+00 0.000000e+00
      endloop
   endfacet
   facet normal 8.090168e-01 5.877855e-01 -0.000000e+00
      outer loop
         vertex -1.702862e+01 -1.657797e-01 1.500000e+00
         vertex -1.702862e+01 -1.657797e-01 0.000000e+00
         vertex -1.766435e+01 7.092202e-01 0.000000e+00
      endloop
   endfacet
   facet normal 8.090168e-01 5.877855e-01 0.000000e+00
      outer loop
         vertex -1.766435e+01 7.092202e-01 1.500000e+00
         vertex -1.702862e+01 -1.657797e-01 1.500000e+00
         vertex -1.766435e+01 7.092202e-01 0.000000e+00
      endloop
   endfacet
   facet normal 3.090172e-01 9.510565e-01 -0.000000e+00
      outer loop
         vertex -1.600000e+01 -5.000000e-01 1.500000e+00
         vertex -1.600000e+01 -5.000000e-01 0.000000e+00
         vertex -1.702862e+01 -1.657797e-01 0.000000e+00
      endloop
   endfacet
   facet normal 3.090172e-01 9.510565e-01 0.000000e+00
      outer loop
         vertex -1.702862e+01 -1.657797e-01 1.500000e+00
         vertex -1.600000e+01 -5.000000e-01 1.500000e+00
         vertex -1.702862e+01 -1.657797e-01 0.000000e+00
      endloop
   endfacet
   facet normal 0.000000e+00 -1.000000e+00 0.000000e+00
      outer loop
         vertex -1.600000e+01 3.000000e+00 0.000000e+00
         vertex -8.038226e+00 3.000000e+00 0.000000e+00
         vertex -8.038226e+00 3.000000e+00 1.500000e+00
      endloop
   endfacet
   facet normal 0.000000e+00 -1.000000e+00 0.000000e+00
      outer loop
         vertex -8.038226e+00 3.000000e+00 1.500000e+00
         vertex -1.600000e+01 3.000000e+00 1.500000e+00
         vertex -1.600000e+01 3.000000e+00 0.000000e+00
      endloop
   endfacet
   facet normal -7.769455e-01 -6.295678e-01 0.000000e+00
      outer loop
         vertex -6.920192e+00 2.658312e+00 1.500000e+00
         vertex -6.920192e+00 2.658312e+00 0.000000e+00
         vertex -6.184176e+00 1.750000e+00 0.000000e+00
      endloop
   endfacet
   facet normal -7.769455e-01 -6.295678e-01 0.000000e+00
      outer loop
         vertex -6.184176e+00 1.750000e+00 1.500000e+00
         vertex -6.920192e+00 2.658312e+00 1.500000e+00
         vertex -6.184176e+00 1.750000e+00 0.000000e+00
      endloop
   endfacet
   facet normal -2.922703e-01 -9.563357e-01 0.000000e+00
      outer loop
         vertex -8.038226e+00 3.000000e+00 1.500000e+00
         vertex -8.038226e+00 3.000000e+00 0.000000e+00
         vertex -6.920192e+00 2.658312e+00 0.000000e+00
      endloop
   endfacet
   facet normal -2.922703e-01 -9.563357e-01 0.000000e+00
      outer loop
         vertex -6.920192e+00 2.658312e+00 1.500000e+00
         vertex -8.038226e+00 3.000000e+00 1.500000e+00
         vertex -6.920192e+00 2.658312e+00 0.000000e+00
      endloop
   endfacet
   facet normal 6.946965e-01 -7.193029e-01 0.000000e+00
      outer loop
         vertex -3.390996e+00 7.342044e-01 1.500000e+00
         vertex -3.390996e+00 7.342044e-01 0.000000e+00
         vertex -2.598076e+00 1.500000e+00 0.000000e+00
      endloop
   endfacet
   facet normal 6.946965e-01 -7.193029e-01 0.000000e+00
      outer loop
         vertex -2.598076e+00 1.500000e+00 1.500000e+00
         vertex -3.390996e+00 7.342044e-01 1.500000e+00
         vertex -2.598076e+00 1.500000e+00 0.000000e+00
      endloop
   endfacet
   facet normal 2.080673e-01 -9.781145e-01 0.000000e+00
      outer loop
         vertex -4.469217e+00 5.048423e-01 1.500000e+00
         vertex -4.469217e+00 5.048423e-01 0.000000e+00
         vertex -3.390996e+00 7.342044e-01 0.000000e+00
      endloop
   endfacet
   facet normal 2.080673e-01 -9.781145e-01 0.000000e+00
      outer loop
         vertex -3.390996e+00 7.342044e-01 1.500000e+00
         vertex -4.469217e+00 5.048423e-01 1.500000e+00
         vertex -3.390996e+00 7.342044e-01 0.000000e+00
      endloop
   endfacet
   facet normal -3.417709e-01 -9.397833e-01 0.000000e+00
      outer loop
         vertex -5.505183e+00 8.815920e-01 1.500000e+00
         vertex -5.505183e+00 8.815920e-01 0.000000e+00
         vertex -4.469217e+00 5.048423e-01 0.000000e+00
      endloop
   endfacet
   facet normal -3.417709e-01 -9.397833e-01 0.000000e+00
      outer loop
         vertex -4.469217e+00 5.048423e-01 1.500000e+00
         vertex -5.505183e+00 8.815920e-01 1.500000e+00
         vertex -4.469217e+00 5.048423e-01 0.000000e+00
      endloop
   endfacet
   facet normal -7.877823e-01 -6.159538e-01 0.000000e+00
      outer loop
         vertex -6.184176e+00 1.750000e+00 1.500000e+00
         vertex -6.184176e+00 1.750000e+00 0.000000e+00
         vertex -5.505183e+00 8.815920e-01 0.000000e+00
      endloop
   endfacet
   facet normal -7.877823e-01 -6.159538e-01 0.000000e+00
      outer loop
         vertex -5.505183e+00 8.815920e-01 1.500000e+00
         vertex -6.184176e+00 1.750000e+00 1.500000e+00
         vertex -5.505183e+00 8.815920e-01 0.000000e+00
      endloop
   endfacet
   facet normal -7.071068e-01 -7.071068e-01 0.000000e+00
      outer loop
         vertex 1.500000e+00 2.598076e+00 1.500000e+00
         vertex 1.500000e+00 2.598076e+00 0.000000e+00
         vertex 2.598076e+00 1.500000e+00 0.000000e+00
      endloop
   endfacet
   facet normal -7.071068e-01 -7.071068e-01 0.000000e+00
      outer loop
         vertex 2.598076e+00 1.500000e+00 1.500000e+00
         vertex 1.500000e+00 2.598076e+00 1.500000e+00
         vertex 2.598076e+00 1.500000e+00 0.000000e+00
      endloop
   endfacet
   facet normal -2.588191e-01 -9.659258e-01 0.000000e+00
      outer loop
         vertex -1.705303e-13 3.000000e+00 1.500000e+00
         vertex -1.705303e-13 3.000000e+00 0.000000e+00
         vertex 1.500000e+00 2.598076e+00 0.000000e+00
      endloop
   endfacet
   facet normal -2.588191e-01 -9.659258e-01 0.000000e+00
      outer loop
         vertex 1.500000e+00 2.598076e+00 1.500000e+00
         vertex -1.705303e-13 3.000000e+00 1.500000e+00
         vertex 1.500000e+00 2.598076e+00 0.000000e+00
      endloop
   endfacet
   facet normal 2.588191e-01 -9.659258e-01 0.000000e+00
      outer loop
         vertex -1.500000e+00 2.598076e+00 1.500000e+00
         vertex -1.500000e+00 2.598076e+00 0.000000e+00
         vertex -1.705303e-13 3.000000e+00 0.000000e+00
      endloop
   endfacet
   facet normal 2.588191e-01 -9.659258e-01 0.000000e+00
      outer loop
         vertex -1.705303e-13 3.000000e+00 1.500000e+00
         vertex -1.500000e+00 2.598076e+00 1.500000e+00
         vertex -1.705303e-13 3.000000e+00 0.000000e+00
      endloop
   endfacet
   facet normal 7.071068e-01 -7.071068e-01 0.000000e+00
      outer loop
         vertex -2.598076e+00 1.500000e+00 1.500000e+00
         vertex -2.598076e+00 1.500000e+00 0.000000e+00
         vertex -1.500000e+00 2.598076e+00 0.000000e+00
      endloop
   endfacet
   facet normal 7.071068e-01 -7.071068e-01 0.000000e+00
      outer loop
         vertex -1.500000e+00 2.598076e+00 1.500000e+00
         vertex -2.598076e+00 1.500000e+00 1.500000e+00
         vertex -1.500000e+00 2.598076e+00 0.000000e+00
      endloop
   endfacet
   facet normal 7.877823e-01 -6.159538e-01 0.000000e+00
      outer loop
         vertex 5.505183e+00 8.815920e-01 1.500000e+00
         vertex 5.505183e+00 8.815920e-01 0.000000e+00
         vertex 6.184176e+00 1.750000e+00 0.000000e+00
      endloop
   endfacet
   facet normal 7.877823e-01 -6.159538e-01 0.000000e+00
      outer loop
         vertex 6.184176e+00 1.750000e+00 1.500000e+00
         vertex 5.505183e+00 8.815920e-01 1.500000e+00
         vertex 6.184176e+00 1.750000e+00 0.000000e+00
      endloop
   endfacet
   facet normal 3.417709e-01 -9.397833e-01 0.000000e+00
      outer loop
         vertex 4.469217e+00 5.048423e-01 1.500000e+00
         vertex 4.469217e+00 5.048423e-01 0.000000e+00
         vertex 5.505183e+00 8.815920e-01 0.000000e+00
      endloop
   endfacet
   facet normal 3.417709e-01 -9.397833e-01 0.000000e+00
      outer loop
         vertex 5.505183e+00 8.815920e-01 1.500000e+00
         vertex 4.469217e+00 5.048423e-01 1.500000e+00
         vertex 5.505183e+00 8.815920e-01 0.000000e+00
      endloop
   endfacet
   facet normal -2.080673e-01 -9.781145e-01 0.000000e+00
      outer loop
         vertex 3.390996e+00 7.342044e-01 1.500000e+00
         vertex 3.390996e+00 7.342044e-01 0.000000e+00
         vertex 4.469217e+00 5.048423e-01 0.000000e+00
      endloop
   endfacet
   facet normal -2.080673e-01 -9.781145e-01 0.000000e+00
      outer loop
         vertex 4.469217e+00 5.048423e-01 1.500000e+00
         vertex 3.390996e+00 7.342044e-01 1.500000e+00
         vertex 4.469217e+00 5.048423e-01 0.000000e+00
      endloop
   endfacet
   facet normal -6.946965e-01 -7.193029e-01 0.000000e+00
      outer loop
         vertex 2.598076e+00 1.500000e+00 1.500000e+00
         vertex 2.598076e+00 1.500000e+00 0.000000e+00
         vertex 3.390996e+00 7.342044e-01 0.000000e+00
      endloop
   endfacet
   facet normal -6.946965e-01 -7.193029e-01 0.000000e+00
      outer loop
         vertex 3.390996e+00 7.342044e-01 1.500000e+00
         vertex 2.598076e+00 1.500000e+00 1.500000e+00
         vertex 3.390996e+00 7.342044e-01 0.000000e+00
      endloop
   endfacet
   facet normal 2.922703e-01 -9.563357e-01 0.000000e+00
      outer loop
         vertex 6.920192e+00 2.658312e+00 1.500000e+00
         vertex 6.920192e+00 2.658312e+00 0.000000e+00
         vertex 8.038226e+00 3.000000e+00 0.000000e+00
      endloop
   endfacet
   facet normal 2.922703e-01 -9.563357e-01 0.000000e+00
      outer loop
         vertex 8.038226e+00 3.000000e+00 1.500000e+00
         vertex 6.920192e+00 2.658312e+00 1.500000e+00
         vertex 8.038226e+00 3.000000e+00 0.000000e+00
      endloop
   endfacet
   facet normal 7.769455e-01 -6.295678e-01 0.000000e+00
      outer loop
         vertex 6.184176e+00 1.750000e+00 1.500000e+00
         vertex 6.184176e+00 1.750000e+00 0.000000e+00
         vertex 6.920192e+00 2.658312e+00 0.000000e+00
      endloop
   endfacet
   facet normal 7.769455e-01 -6.295678e-01 0.000000e+00
      outer loop
         vertex 6.920192e+00 2.658312e+00 1.500000e+00
         vertex 6.184176e+00 1.750000e+00 1.500000e+00
         vertex 6.920192e+00 2.658312e+00 0.000000e+00
      endloop
   endfacet
   facet normal 0.000000e+00 -1.000000e+00 0.000000e+00
      outer loop
         vertex 8.038226e+00 3.000000e+00 0.000000e+00
         vertex 1.600000e+01 3.000000e+00 0.000000e+00
         vertex 1.600000e+01 3.000000e+00 1.500000e+00
      endloop
   endfacet
   facet normal 0.000000e+00 -1.000000e+00 0.000000e+00
      outer loop
         vertex 1.600000e+01 3.000000e+00 1.500000e+00
         vertex 8.038226e+00 3.000000e+00 1.500000e+00
         vertex 8.038226e+00 3.000000e+00 0.000000e+00
      endloop
   endfacet
   facet normal -3.090172e-01 9.510565e-01 0.000000e+00
      outer loop
         vertex 1.702862e+01 -1.657797e-01 1.500000e+00
         vertex 1.702862e+01 -1.657797e-01 0.000000e+00
         vertex 1.600000e+01 -5.000000e-01 0.000000e+00
      endloop
   endfacet
   facet normal -3.090172e-01 9.510565e-01 0.000000e+00
      outer loop
         vertex 1.600000e+01 -5.000000e-01 1.500000e+00
         vertex 1.702862e+01 -1.657797e-01 1.500000e+00
         vertex 1.600000e+01 -5.000000e-01 0.000000e+00
      endloop
   endfacet
   facet normal -8.090168e-01 5.877855e-01 0.000000e+00
      outer loop
         vertex 1.766435e+01 7.092202e-01 1.500000e+00
         vertex 1.766435e+01 7.092202e-01 0.000000e+00
         vertex 1.702862e+01 -1.657797e-01 0.000000e+00
      endloop
   endfacet
   facet normal -8.090168e-01 5.877855e-01 0.000000e+00
      outer loop
         vertex 1.702862e+01 -1.657797e-01 1.500000e+00
         vertex 1.766435e+01 7.092202e-01 1.500000e+00
         vertex 1.702862e+01 -1.657797e-01 0.000000e+00
      endloop
   endfacet
   facet normal -1.000000e+00 0.000000e+00 0.000000e+00
      outer loop
         vertex 1.766435e+01 1.790780e+00 1.500000e+00
         vertex 1.766435e+01 1.790780e+00 0.000000e+00
         vertex 1.766435e+01 7.092202e-01 0.000000e+00
      endloop
   endfacet
   facet normal -1.000000e+00 -0.000000e+00 0.000000e+00
      outer loop
         vertex 1.766435e+01 7.092202e-01 1.500000e+00
         vertex 1.766435e+01 1.790780e+00 1.500000e+00
         vertex 1.766435e+01 7.092202e-01 0.000000e+00
      endloop
   endfacet
   facet normal -8.090169e-01 -5.877854e-01 0.000000e+00
      outer loop
         vertex 1.702862e+01 2.665780e+00 1.500000e+00
         vertex 1.702862e+01 2.665780e+00 0.000000e+00
         vertex 1.766435e+01 1.790780e+00 0.000000e+00
      endloop
   endfacet
   facet normal -8.090169e-01 -5.877854e-01 0.000000e+00
      outer loop
         vertex 1.766435e+01 1.790780e+00 1.500000e+00
         vertex 1.702862e+01 2.665780e+00 1.500000e+00
         vertex 1.766435e+01 1.790780e+00 0.000000e+00
      endloop
   endfacet
   facet normal -3.090171e-01 -9.510565e-01 0.000000e+00
      outer loop
         vertex 1.600000e+01 3.000000e+00 1.500000e+00
         vertex 1.600000e+01 3.000000e+00 0.000000e+00
         vertex 1.702862e+01 2.665780e+00 0.000000e+00
      endloop
   endfacet
   facet normal -3.090171e-01 -9.510565e-01 0.000000e+00
      outer loop
         vertex 1.702862e+01 2.665780e+00 1.500000e+00
         vertex 1.600000e+01 3.000000e+00 1.500000e+00
         vertex 1.702862e+01 2.665780e+00 0.000000e+00
      endloop
   endfacet
   facet normal 7.436102e-07 1.000000e+00 -0.000000e+00
      outer loop
         vertex 1.600000e+01 -5.000000e-01 0.000000e+00
         vertex 4.337337e+00 -4.999913e-01 0.000000e+00
         vertex 4.337337e+00 -4.999913e-01 1.500000e+00
      endloop
   endfacet
   facet normal 7.436102e-07 1.000000e+00 0.000000e+00
      outer loop
         vertex 4.337337e+00 -4.999913e-01 1.500000e+00
         vertex 1.600000e+01 -5.000000e-01 1.500000e+00
         vertex 1.600000e+01 -5.000000e-01 0.000000e+00
      endloop
   endfacet
   facet normal 7.066818e-01 7.075315e-01 -0.000000e+00
      outer loop
         vertex 2.833250e+00 -9.987674e-02 1.500000e+00
         vertex 2.833250e+00 -9.987674e-02 0.000000e+00
         vertex 1.732051e+00 1.000000e+00 0.000000e+00
      endloop
   endfacet
   facet normal 7.066818e-01 7.075315e-01 0.000000e+00
      outer loop
         vertex 1.732051e+00 1.000000e+00 1.500000e+00
         vertex 2.833250e+00 -9.987674e-02 1.500000e+00
         vertex 1.732051e+00 1.000000e+00 0.000000e+00
      endloop
   endfacet
   facet normal 2.570777e-01 9.663907e-01 -0.000000e+00
      outer loop
         vertex 4.337337e+00 -4.999913e-01 1.500000e+00
         vertex 4.337337e+00 -4.999913e-01 0.000000e+00
         vertex 2.833250e+00 -9.987674e-02 0.000000e+00
      endloop
   endfacet
   facet normal 2.570777e-01 9.663907e-01 0.000000e+00
      outer loop
         vertex 2.833250e+00 -9.987674e-02 1.500000e+00
         vertex 4.337337e+00 -4.999913e-01 1.500000e+00
         vertex 2.833250e+00 -9.987674e-02 0.000000e+00
      endloop
   endfacet
   facet normal -6.427876e-01 7.660444e-01 0.000000e+00
      outer loop
         vertex -6.840403e-01 1.879385e+00 1.500000e+00
         vertex -6.840403e-01 1.879385e+00 0.000000e+00
         vertex -1.732051e+00 1.000000e+00 0.000000e+00
      endloop
   endfacet
   facet normal -6.427876e-01 7.660444e-01 0.000000e+00
      outer loop
         vertex -1.732051e+00 1.000000e+00 1.500000e+00
         vertex -6.840403e-01 1.879385e+00 1.500000e+00
         vertex -1.732051e+00 1.000000e+00 0.000000e+00
      endloop
   endfacet
   facet normal 0.000000e+00 1.000000e+00 -0.000000e+00
      outer loop
         vertex 6.840403e-01 1.879385e+00 1.500000e+00
         vertex 6.840403e-01 1.879385e+00 0.000000e+00
         vertex -6.840403e-01 1.879385e+00 0.000000e+00
      endloop
   endfacet
   facet normal 0.000000e+00 1.000000e+00 0.000000e+00
      outer loop
         vertex -6.840403e-01 1.879385e+00 1.500000e+00
         vertex 6.840403e-01 1.879385e+00 1.500000e+00
         vertex -6.840403e-01 1.879385e+00 0.000000e+00
      endloop
   endfacet
   facet normal 6.427876e-01 7.660444e-01 -0.000000e+00
      outer loop
         vertex 1.732051e+00 1.000000e+00 1.500000e+00
         vertex 1.732051e+00 1.000000e+00 0.000000e+00
         vertex 6.840403e-01 1.879385e+00 0.000000e+00
      endloop
   endfacet
   facet normal 6.427876e-01 7.660444e-01 0.000000e+00
      outer loop
         vertex 6.840403e-01 1.879385e+00 1.500000e+00
         vertex 1.732051e+00 1.000000e+00 1.500000e+00
         vertex 6.840403e-01 1.879385e+00 0.000000e+00
      endloop
   endfacet
   facet normal -2.570777e-01 9.663907e-01 0.000000e+00
      outer loop
         vertex -2.833250e+00 -9.987674e-02 1.500000e+00
         vertex -2.833250e+00 -9.987674e-02 0.000000e+00
         vertex -4.337337e+00 -4.999913e-01 0.000000e+00
      endloop
   endfacet
   facet normal -2.570777e-01 9.663907e-01 0.000000e+00
      outer loop
         vertex -4.337337e+00 -4.999913e-01 1.500000e+00
         vertex -2.833250e+00 -9.987674e-02 1.500000e+00
         vertex -4.337337e+00 -4.999913e-01 0.000000e+00
      endloop
   endfacet
   facet normal -7.066818e-01 7.075315e-01 0.000000e+00
      outer loop
         vertex -1.732051e+00 1.000000e+00 1.500000e+00
         vertex -1.732051e+00 1.000000e+00 0.000000e+00
         vertex -2.833250e+00 -9.987674e-02 0.000000e+00
      endloop
   endfacet
   facet normal -7.066818e-01 7.075315e-01 0.000000e+00
      outer loop
         vertex -2.833250e+00 -9.987674e-02 1.500000e+00
         vertex -1.732051e+00 1.000000e+00 1.500000e+00
         vertex -2.833250e+00 -9.987674e-02 0.000000e+00
      endloop
   endfacet
   facet normal 2.588190e-01 -9.659258e-01 0.000000e+00
      outer loop
         vertex 1.600000e+01 -2.000000e+00 0.000000e+00
         vertex 1.762500e+01 -1.564583e+00 0.000000e+00
         vertex 1.762500e+01 -1.564583e+00 1.500000e+00
      endloop
   endfacet
   facet normal 2.588190e-01 -9.659258e-01 0.000000e+00
      outer loop
         vertex 1.600000e+01 -2.000000e+00 0.000000e+00
         vertex 1.762500e+01 -1.564583e+00 1.500000e+00
         vertex 1.600000e+01 -2.000000e+00 1.500000e+00
      endloop
   endfacet
   facet normal 7.071067e-01 -7.071069e-01 0.000000e+00
      outer loop
         vertex 1.762500e+01 -1.564583e+00 0.000000e+00
         vertex 1.881458e+01 -3.750000e-01 0.000000e+00
         vertex 1.881458e+01 -3.750000e-01 1.500000e+00
      endloop
   endfacet
   facet normal 7.071067e-01 -7.071069e-01 0.000000e+00
      outer loop
         vertex 1.762500e+01 -1.564583e+00 0.000000e+00
         vertex 1.881458e+01 -3.750000e-01 1.500000e+00
         vertex 1.762500e+01 -1.564583e+00 1.500000e+00
      endloop
   endfacet
   facet normal 9.659259e-01 -2.588189e-01 0.000000e+00
      outer loop
         vertex 1.881458e+01 -3.750000e-01 0.000000e+00
         vertex 1.925000e+01 1.250000e+00 0.000000e+00
         vertex 1.925000e+01 1.250000e+00 1.500000e+00
      endloop
   endfacet
   facet normal 9.659259e-01 -2.588189e-01 0.000000e+00
      outer loop
         vertex 1.881458e+01 -3.750000e-01 0.000000e+00
         vertex 1.925000e+01 1.250000e+00 1.500000e+00
         vertex 1.881458e+01 -3.750000e-01 1.500000e+00
      endloop
   endfacet
   facet normal 9.659259e-01 2.588189e-01 -0.000000e+00
      outer loop
         vertex 1.925000e+01 1.250000e+00 0.000000e+00
         vertex 1.881458e+01 2.875000e+00 0.000000e+00
         vertex 1.881458e+01 2.875000e+00 1.500000e+00
      endloop
   endfacet
   facet normal 9.659259e-01 2.588189e-01 0.000000e+00
      outer loop
         vertex 1.925000e+01 1.250000e+00 0.000000e+00
         vertex 1.881458e+01 2.875000e+00 1.500000e+00
         vertex 1.925000e+01 1.250000e+00 1.500000e+00
      endloop
   endfacet
   facet normal 7.071066e-01 7.071069e-01 -0.000000e+00
      outer loop
         vertex 1.881458e+01 2.875000e+00 0.000000e+00
         vertex 1.762500e+01 4.064582e+00 0.000000e+00
         vertex 1.762500e+01 4.064582e+00 1.500000e+00
      endloop
   endfacet
   facet normal 7.071066e-01 7.071069e-01 0.000000e+00
      outer loop
         vertex 1.881458e+01 2.875000e+00 0.000000e+00
         vertex 1.762500e+01 4.064582e+00 1.500000e+00
         vertex 1.881458e+01 2.875000e+00 1.500000e+00
      endloop
   endfacet
   facet normal 2.588192e-01 9.659258e-01 -0.000000e+00
      outer loop
         vertex 1.762500e+01 4.064582e+00 0.000000e+00
         vertex 1.600000e+01 4.500000e+00 0.000000e+00
         vertex 1.600000e+01 4.500000e+00 1.500000e+00
      endloop
   endfacet
   facet normal 2.588192e-01 9.659258e-01 0.000000e+00
      outer loop
         vertex 1.762500e+01 4.064582e+00 0.000000e+00
         vertex 1.600000e+01 4.500000e+00 1.500000e+00
         vertex 1.762500e+01 4.064582e+00 1.500000e+00
      endloop
   endfacet
   facet normal 0.000000e+00 -1.000000e+00 0.000000e+00
      outer loop
         vertex -1.600000e+01 -2.000000e+00 1.500000e+00
         vertex -1.600000e+01 -2.000000e+00 0.000000e+00
         vertex 1.600000e+01 -2.000000e+00 0.000000e+00
      endloop
   endfacet
   facet normal -0.000000e+00 -1.000000e+00 -0.000000e+00
      outer loop
         vertex 1.600000e+01 -2.000000e+00 0.000000e+00
         vertex 1.600000e+01 -2.000000e+00 1.500000e+00
         vertex -1.600000e+01 -2.000000e+00 1.500000e+00
      endloop
   endfacet
   facet normal -2.588192e-01 9.659258e-01 0.000000e+00
      outer loop
         vertex -1.600000e+01 4.500000e+00 0.000000e+00
         vertex -1.762500e+01 4.064582e+00 0.000000e+00
         vertex -1.762500e+01 4.064582e+00 1.500000e+00
      endloop
   endfacet
   facet normal -2.588192e-01 9.659258e-01 0.000000e+00
      outer loop
         vertex -1.600000e+01 4.500000e+00 0.000000e+00
         vertex -1.762500e+01 4.064582e+00 1.500000e+00
         vertex -1.600000e+01 4.500000e+00 1.500000e+00
      endloop
   endfacet
   facet normal -7.071066e-01 7.071069e-01 0.000000e+00
      outer loop
         vertex -1.762500e+01 4.064582e+00 0.000000e+00
         vertex -1.881458e+01 2.875000e+00 0.000000e+00
         vertex -1.881458e+01 2.875000e+00 1.500000e+00
      endloop
   endfacet
   facet normal -7.071066e-01 7.071069e-01 0.000000e+00
      outer loop
         vertex -1.762500e+01 4.064582e+00 0.000000e+00
         vertex -1.881458e+01 2.875000e+00 1.500000e+00
         vertex -1.762500e+01 4.064582e+00 1.500000e+00
      endloop
   endfacet
   facet normal -9.659259e-01 2.588189e-01 0.000000e+00
      outer loop
         vertex -1.881458e+01 2.875000e+00 0.000000e+00
         vertex -1.925000e+01 1.250000e+00 0.000000e+00
         vertex -1.925000e+01 1.250000e+00 1.500000e+00
      endloop
   endfacet
   facet normal -9.659259e-01 2.588189e-01 0.000000e+00
      outer loop
         vertex -1.881458e+01 2.875000e+00 0.000000e+00
         vertex -1.925000e+01 1.250000e+00 1.500000e+00
         vertex -1.881458e+01 2.875000e+00 1.500000e+00
      endloop
   endfacet
   facet normal -9.659259e-01 -2.588189e-01 0.000000e+00
      outer loop
         vertex -1.925000e+01 1.250000e+00 0.000000e+00
         vertex -1.881458e+01 -3.750000e-01 0.000000e+00
         vertex -1.881458e+01 -3.750000e-01 1.500000e+00
      endloop
   endfacet
   facet normal -9.659259e-01 -2.588189e-01 0.000000e+00
      outer loop
         vertex -1.925000e+01 1.250000e+00 0.000000e+00
         vertex -1.881458e+01 -3.750000e-01 1.500000e+00
         vertex -1.925000e+01 1.250000e+00 1.500000e+00
      endloop
   endfacet
   facet normal -7.071067e-01 -7.071069e-01 0.000000e+00
      outer loop
         vertex -1.881458e+01 -3.750000e-01 0.000000e+00
         vertex -1.762500e+01 -1.564583e+00 0.000000e+00
         vertex -1.762500e+01 -1.564583e+00 1.500000e+00
      endloop
   endfacet
   facet normal -7.071067e-01 -7.071069e-01 0.000000e+00
      outer loop
         vertex -1.881458e+01 -3.750000e-01 0.000000e+00
         vertex -1.762500e+01 -1.564583e+00 1.500000e+00
         vertex -1.881458e+01 -3.750000e-01 1.500000e+00
      endloop
   endfacet
   facet normal -2.588190e-01 -9.659258e-01 0.000000e+00
      outer loop
         vertex -1.762500e+01 -1.564583e+00 0.000000e+00
         vertex -1.600000e+01 -2.000000e+00 0.000000e+00
         vertex -1.600000e+01 -2.000000e+00 1.500000e+00
      endloop
   endfacet
   facet normal -2.588190e-01 -9.659258e-01 0.000000e+00
      outer loop
         vertex -1.762500e+01 -1.564583e+00 0.000000e+00
         vertex -1.600000e+01 -2.000000e+00 1.500000e+00
         vertex -1.762500e+01 -1.564583e+00 1.500000e+00
      endloop
   endfacet
   facet normal 0.000000e+00 1.000000e+00 -0.000000e+00
      outer loop
         vertex 1.600000e+01 4.500000e+00 1.500000e+00
         vertex 1.600000e+01 4.500000e+00 0.000000e+00
         vertex -1.600000e+01 4.500000e+00 0.000000e+00
      endloop
   endfacet
   facet normal -0.000000e+00 1.000000e+00 0.000000e+00
      outer loop
         vertex -1.600000e+01 4.500000e+00 0.000000e+00
         vertex -1.600000e+01 4.500000e+00 1.500000e+00
         vertex 1.600000e+01 4.500000e+00 1.500000e+00
      endloop
   endfacet
endsolid
